<svg width="70" height="82" viewBox="0 0 70 82" fill="none" xmlns="http://www.w3.org/2000/svg">
<path fill-rule="evenodd" clip-rule="evenodd" d="M64.4921 28.5253C65.437 28.5144 66.4659 28.5025 67.4008 28.5025C68.4058 28.5025 69.2098 29.3146 69.2098 30.3296V62.9736C69.2098 73.0429 61.1296 81.2038 51.1198 81.2038H19.1609C8.70891 81.2038 0.186523 72.6368 0.186523 62.0803V18.3115C0.186523 8.24219 8.30691 0 18.3167 0H39.7834C40.8286 0 41.6326 0.85264 41.6326 1.86769V14.9415C41.6326 22.3717 47.7028 28.4619 55.0594 28.5025C56.7778 28.5025 58.2926 28.5154 59.6184 28.5266C60.6497 28.5354 61.5666 28.5431 62.3758 28.5431C62.948 28.5431 63.6898 28.5346 64.4921 28.5253ZM65.5969 22.6001C62.2924 22.6123 58.3971 22.6001 55.5951 22.5717C51.149 22.5717 47.4868 18.8728 47.4868 14.3823V3.67961C47.4868 1.92967 49.5893 1.06079 50.7912 2.3235C52.9675 4.60899 55.9585 7.75088 58.9355 10.8781C61.903 13.9954 64.8566 17.0981 66.9757 19.3235C68.1496 20.5538 67.2893 22.596 65.5969 22.6001Z" fill="#AFC1FF"/>
</svg>
