<svg xmlns="http://www.w3.org/2000/svg" width="20" height="24" viewBox="0 0 20 24" fill="none">
<path d="M14.7936 0C13.46 0 12.1471 0.539647 11.1352 1.59514L2.13901 10.9783C-0.713109 13.9531 -0.712897 18.7932 2.13901 21.769C4.99113 24.7438 9.6316 24.7436 12.4846 21.769L18.4821 15.5135L17.1326 14.106L11.1352 20.3615C9.01559 22.5714 5.607 22.5712 3.48844 20.3615C1.36966 18.1507 1.36987 14.5955 3.48844 12.3858L12.4846 3.00262C13.7751 1.65659 15.8421 1.65659 17.1326 3.00262C18.4231 4.34864 18.4231 6.50457 17.1326 7.85059L8.13646 17.2338C7.67408 17.7155 6.94837 17.7148 6.48716 17.2338C6.02531 16.7515 6.02595 15.9946 6.48716 15.5135L14.7337 6.91227L13.3842 5.5048L5.13773 14.106C3.94269 15.3525 3.94333 17.394 5.13773 18.6412C6.33278 19.8877 8.29009 19.887 9.48589 18.6412L18.4821 9.25807C20.506 7.14708 20.506 3.70613 18.4821 1.59514C17.4701 0.539647 16.1272 0 14.7936 0Z" fill="#828282"/>
</svg>