<svg width="15" height="16" viewBox="0 0 15 16" fill="none" xmlns="http://www.w3.org/2000/svg">
<path fill-rule="evenodd" clip-rule="evenodd" d="M10.3148 0.605321C9.36228 -0.410705 7.75232 -0.104426 7.18781 1.2002L6.50998 2.76674C6.34145 3.15624 6.10964 3.51086 5.82526 3.8142C5.37915 4.29005 4.818 4.62452 4.20426 4.78039L1.4891 5.46996C0.0155351 5.84417 -0.502577 7.7969 0.568495 8.93934L3.00714 11.5406L0.315691 14.4454C-0.00836325 14.7911 -0.00836325 15.3514 0.315691 15.6971C0.639745 16.0427 1.16505 16.0427 1.4891 15.6971L4.18067 12.7924L6.61936 15.3936C7.69041 16.5361 9.52107 15.9834 9.87191 14.4116L10.5184 11.5154C10.6645 10.8608 10.9781 10.2622 11.4242 9.7864C11.7086 9.48306 12.041 9.23578 12.4062 9.05602L13.8748 8.333C15.0979 7.73086 15.385 6.01357 14.4325 4.99754L10.3148 0.605321Z" fill="#242424"/>
</svg>
